<?xml version="1.0" encoding="UTF-8"?>
<!DOCTYPE svg PUBLIC "-//W3C//DTD SVG 1.1//EN" "http://www.w3.org/Graphics/SVG/1.1/DTD/svg11.dtd">
<svg xmlns="http://www.w3.org/2000/svg" version="1.1" width="512px" height="512px" style="shape-rendering:geometricPrecision; text-rendering:geometricPrecision; image-rendering:optimizeQuality; fill-rule:evenodd; clip-rule:evenodd" xmlns:xlink="http://www.w3.org/1999/xlink">
<g><path style="opacity:0.996" fill="#77728d" d="M 511.5,208.5 C 511.5,213.5 511.5,218.5 511.5,223.5C 508.199,231.468 502.532,237.135 494.5,240.5C 440.152,200.835 379.818,174.501 313.5,161.5C 312.167,160.833 310.833,160.167 309.5,159.5C 310.376,159.631 311.043,159.298 311.5,158.5C 299.142,129.328 277.142,112.828 245.5,109C 212.468,105.778 185.968,117.278 166,143.5C 154.077,161.785 151.577,181.118 158.5,201.5C 158.167,202.167 157.833,202.833 157.5,203.5C 146.381,209.896 135.047,216.063 123.5,222C 114.804,226.065 105.804,229.232 96.5,231.5C 95.391,231.557 94.391,231.89 93.5,232.5C 69.7922,212.083 56.9588,186.083 55,154.5C 54.6277,140.641 54.461,126.975 54.5,113.5C 58.8298,109.002 62.9965,104.335 67,99.5C 69,95.1667 69,90.8333 67,86.5C 61.9557,78.4492 55.789,71.2825 48.5,65C 39.3366,58.2485 29.67,52.2485 19.5,47C 12.5606,38.119 13.2272,29.7857 21.5,22C 51.8032,2.92191 84.4698,-3.07809 119.5,4C 140.231,9.76425 158.231,20.0976 173.5,35C 176.205,36.8715 179.205,37.7048 182.5,37.5C 223.121,26.6347 264.454,21.8014 306.5,23C 365.904,24.4421 412.404,49.2754 446,97.5C 450.508,104.513 454.508,111.847 458,119.5C 464.67,135.843 470.337,152.51 475,169.5C 484.724,175.533 493.724,182.533 502,190.5C 505.995,196.161 509.162,202.161 511.5,208.5 Z"/></g>
<g><path style="opacity:1" fill="#dfdde4" d="M 309.5,77.5 C 332.943,76.2596 353.943,82.7596 372.5,97C 378.105,102.048 381.772,108.214 383.5,115.5C 382.422,123.745 377.755,128.579 369.5,130C 342.469,133.545 319.303,125.712 300,106.5C 290.123,92.3634 293.29,82.6967 309.5,77.5 Z"/></g>
<g><path style="opacity:1" fill="#5c576e" d="M 309.5,159.5 C 299.878,158.089 290.211,157.089 280.5,156.5C 262.194,133.372 239.194,127.205 211.5,138C 192.177,148.808 182.177,165.308 181.5,187.5C 174,192.418 166.333,197.084 158.5,201.5C 151.577,181.118 154.077,161.785 166,143.5C 185.968,117.278 212.468,105.778 245.5,109C 277.142,112.828 299.142,129.328 311.5,158.5C 311.043,159.298 310.376,159.631 309.5,159.5 Z"/></g>
<g><path style="opacity:1" fill="#5c576e" d="M 54.5,113.5 C 54.461,126.975 54.6277,140.641 55,154.5C 56.9588,186.083 69.7922,212.083 93.5,232.5C 81.9019,234.088 70.9019,237.588 60.5,243C 47.0121,255.73 46.0121,269.396 57.5,284C 59.9007,286.062 62.5674,287.729 65.5,289C 81.5695,291.567 97.5695,294.567 113.5,298C 121.565,299.732 126.732,304.565 129,312.5C 129.972,316.097 130.472,319.764 130.5,323.5C 129.761,330.863 128.761,338.196 127.5,345.5C 130.672,366.77 143.006,375.937 164.5,373C 172.688,371.993 180.354,369.493 187.5,365.5C 211.1,381.323 237.1,387.823 265.5,385C 267.333,383.167 269.167,381.333 271,379.5C 280.46,348.704 300.294,327.537 330.5,316C 334.59,314.303 338.757,312.803 343,311.5C 346.814,311.981 349.48,313.981 351,317.5C 356.283,340.72 355.616,363.72 349,386.5C 345.46,394.24 340.46,400.907 334,406.5C 332.578,409.03 332.245,411.697 333,414.5C 345.546,425.257 352.546,438.923 354,455.5C 355.051,470.255 354.384,484.921 352,499.5C 351.953,505.375 349.119,509.041 343.5,510.5C 307.559,500.629 283.059,478.295 270,443.5C 266.815,440.74 263.148,439.074 259,438.5C 217.875,450.623 176.375,452.123 134.5,443C 72.8188,424.987 31.6522,385.487 11,324.5C 5.54268,306.705 1.70935,288.705 -0.5,270.5C -0.5,256.5 -0.5,242.5 -0.5,228.5C 5.2329,184.038 23.5662,145.704 54.5,113.5 Z"/></g>
<g><path style="opacity:0.996" fill="#423e4f" d="M 280.5,156.5 C 289.742,173.607 293.076,191.941 290.5,211.5C 287.317,229.863 279.817,246.196 268,260.5C 255.598,275.241 241.098,287.407 224.5,297C 212.846,299.432 205.679,294.932 203,283.5C 203.222,269.918 201.722,256.585 198.5,243.5C 198.464,239.021 197.631,234.688 196,230.5C 192,221.167 188,211.833 184,202.5C 182.733,197.565 181.9,192.565 181.5,187.5C 182.177,165.308 192.177,148.808 211.5,138C 239.194,127.205 262.194,133.372 280.5,156.5 Z"/></g>
<g><path style="opacity:1" fill="#fcfcfc" d="M 413.5,139.5 C 418.28,138.641 421.78,140.308 424,144.5C 424.667,150.5 424.667,156.5 424,162.5C 419.748,168.653 415.081,168.986 410,163.5C 409.333,156.833 409.333,150.167 410,143.5C 411.376,142.295 412.542,140.962 413.5,139.5 Z"/></g>
<g><path style="opacity:1" fill="#c1bfca" d="M 280.5,156.5 C 290.211,157.089 299.878,158.089 309.5,159.5C 310.833,160.167 312.167,160.833 313.5,161.5C 312.957,161.56 312.624,161.893 312.5,162.5C 318.304,181.448 318.971,200.448 314.5,219.5C 306.846,215.838 298.846,213.171 290.5,211.5C 293.076,191.941 289.742,173.607 280.5,156.5 Z"/></g>
<g><path style="opacity:0.995" fill="#e0dee4" d="M 313.5,161.5 C 379.818,174.501 440.152,200.835 494.5,240.5C 484.049,246.453 472.716,249.953 460.5,251C 409.022,253.128 360.356,242.628 314.5,219.5C 318.971,200.448 318.304,181.448 312.5,162.5C 312.624,161.893 312.957,161.56 313.5,161.5 Z"/></g>
<g><path style="opacity:1" fill="#c1bfca" d="M 181.5,187.5 C 181.9,192.565 182.733,197.565 184,202.5C 188,211.833 192,221.167 196,230.5C 197.631,234.688 198.464,239.021 198.5,243.5C 174.922,265.669 163.756,293.002 165,325.5C 167.586,341.678 175.086,355.012 187.5,365.5C 180.354,369.493 172.688,371.993 164.5,373C 143.006,375.937 130.672,366.77 127.5,345.5C 128.761,338.196 129.761,330.863 130.5,323.5C 130.472,319.764 129.972,316.097 129,312.5C 126.732,304.565 121.565,299.732 113.5,298C 97.5695,294.567 81.5695,291.567 65.5,289C 62.5674,287.729 59.9007,286.062 57.5,284C 46.0121,269.396 47.0121,255.73 60.5,243C 70.9019,237.588 81.9019,234.088 93.5,232.5C 94.391,231.89 95.391,231.557 96.5,231.5C 96.3893,232.117 96.056,232.617 95.5,233C 116.697,247.402 140.031,254.069 165.5,253C 172.804,248.892 175.637,242.725 174,234.5C 168.966,223.756 163.466,213.423 157.5,203.5C 157.833,202.833 158.167,202.167 158.5,201.5C 166.333,197.084 174,192.418 181.5,187.5 Z"/></g>
<g><path style="opacity:1" fill="#e0dee4" d="M 157.5,203.5 C 163.466,213.423 168.966,223.756 174,234.5C 175.637,242.725 172.804,248.892 165.5,253C 140.031,254.069 116.697,247.402 95.5,233C 96.056,232.617 96.3893,232.117 96.5,231.5C 105.804,229.232 114.804,226.065 123.5,222C 135.047,216.063 146.381,209.896 157.5,203.5 Z"/></g>
</svg>
